<?xml version="1.0" standalone="no"?>
<!DOCTYPE svg PUBLIC "-//W3C//DTD SVG 20010904//EN"
 "http://www.w3.org/TR/2001/REC-SVG-20010904/DTD/svg10.dtd">
<svg version="1.0" xmlns="http://www.w3.org/2000/svg"
 width="300.000000pt" height="300.000000pt" viewBox="0 0 300.000000 300.000000"
 preserveAspectRatio="xMidYMid meet">
<metadata>
Created by potrace 1.11, written by Peter Selinger 2001-2013
</metadata>
<g transform="translate(0.000000,300.000000) scale(0.100000,-0.100000)"
fill="#000000" stroke="none">
<path d="M1460 2764 c-19 -12 -41 -23 -47 -23 -7 -1 -13 -5 -13 -10 0 -5 -8
-11 -17 -14 -10 -4 -36 -17 -58 -29 -88 -51 -231 -134 -247 -143 -9 -5 -56
-33 -105 -61 -48 -28 -180 -104 -293 -169 -113 -66 -225 -130 -250 -144 l-45
-24 0 -638 c0 -554 2 -640 15 -653 13 -12 173 -105 935 -544 72 -41 135 -79
141 -83 16 -13 27 -8 254 124 113 65 223 129 245 141 47 27 144 83 425 245
l205 118 3 644 2 644 -277 160 c-152 88 -299 173 -327 188 -28 16 -76 44 -106
62 -30 18 -75 44 -100 57 -25 14 -101 58 -170 98 -69 40 -127 74 -130 75 -3 2
-21 -8 -40 -21z"/>
</g>
</svg>
